<svg xmlns="http://www.w3.org/2000/svg" width="60" height="720">
<!--Most icons derived from Google's Material Design Icons-->
<!--TODO:
* bomb icon
* minifiy
* gradients?
-->
<g transform="scale(2)"><!--this shouldn't be neccessary, but some browsers have issues with scaling up when drawing to canvas, so just scale here to final size-->
<g><!--new ball-->
<circle fill="#0f0" fill-opacity="0.2" stroke="#0f0" stroke-opacity="0.7" cx="15" cy="15" r="11.5"/><path transform="translate(3 3)" fill="#0f0" d="M18 13h-5v5c0 .55-.45 1-1 1s-1-.45-1-1v-5H6c-.55 0-1-.45-1-1s.45-1 1-1h5V6c0-.55.45-1 1-1s1 .45 1 1v5h5c.55 0 1 .45 1 1s-.45 1-1 1z"/>
</g>
<g transform="translate(0 30)"><!--star-->
<circle fill="#ff0" fill-opacity="0.2" stroke="#ff0" stroke-opacity="0.7" cx="15" cy="15" r="11.5"/><path transform="translate(3 3)" fill="#ff0" d="M12 17.27l5.17 3.12c.38.23.85-.11.75-.54l-1.37-5.88 4.56-3.95c.33-.29.16-.84-.29-.88l-6.01-.51-2.35-5.54c-.17-.41-.75-.41-.92 0L9.19 8.63l-6.01.51c-.44.04-.62.59-.28.88l4.56 3.95-1.37 5.88c-.1.43.37.77.75.54L12 17.27z"/>
</g>
<g transform="translate(0 60)"><!--back-->
<circle fill="#f00" fill-opacity="0.2" stroke="#f00" stroke-opacity="0.7" cx="15" cy="15" r="11.5"/><path transform="translate(3 3)" fill="#f00" d="M20 11H6.83l2.88-2.88c.39-.39.39-1.02 0-1.41-.39-.39-1.02-.39-1.41 0L3.71 11.3c-.39.39-.39 1.02 0 1.41L8.3 17.3c.39.39 1.02.39 1.41 0 .39-.39.39-1.02 0-1.41L6.83 13H20c.55 0 1-.45 1-1s-.45-1-1-1z"/>
</g>
<g transform="translate(0 90)"><!--destroy ball-->
<circle fill="#ff0" fill-opacity="0.2" stroke="#ff0" stroke-opacity="0.7" cx="15" cy="15" r="11.5"/><path transform="translate(4 4)" fill="#ff0" d="M7 3v9c0 .55.45 1 1 1h2v7.15c0 .51.67.69.93.25l5.19-8.9c.39-.67-.09-1.5-.86-1.5H13l2.49-6.65c.25-.65-.23-1.35-.93-1.35H8c-.55 0-1 .45-1 1z"/>
</g>
<g transform="translate(0 120)"><!--random direction-->
<circle fill="#eef" fill-opacity="0.2" stroke="#eef" stroke-opacity="0.7" cx="15" cy="15" r="11.5"/><path transform="translate(5 4) scale(0.8)" fill="#eef" d="M19.35 10.04C18.67 6.59 15.64 4 12 4 9.11 4 6.6 5.64 5.35 8.04 2.34 8.36 0 10.91 0 14c0 3.31 2.69 6 6 6h13c2.76 0 5-2.24 5-5 0-2.64-2.05-4.78-4.65-4.96z"/>
</g>
<g transform="translate(0 150)"><!--toggle walls-->
<circle fill="#00f" fill-opacity="0.2" stroke="#00f" stroke-opacity="0.7" cx="15" cy="15" r="11.5"/><path transform="translate(3 3)" fill="#00f" d="M20 11H6.83l2.88-2.88c.39-.39.39-1.02 0-1.41-.39-.39-1.02-.39-1.41 0L3.71 11.3c-.39.39-.39 1.02 0 1.41L8.3 17.3c.39.39 1.02.39 1.41 0 .39-.39.39-1.02 0-1.41L6.83 13H20c.55 0 1-.45 1-1s-.45-1-1-1z"/><path transform="translate(8.5 3)" fill="#00f" d="M9.31 6.71c-.39.39-.39 1.02 0 1.41L13.19 12l-3.88 3.88c-.39.39-.39 1.02 0 1.41.39.39 1.02.39 1.41 0l4.59-4.59c.39-.39.39-1.02 0-1.41L10.72 6.7c-.38-.38-1.02-.38-1.41.01z"/>
</g>
<g transform="translate(0 180)"><!--bomb-->
<circle fill="#000" fill-opacity="0.2" stroke="#000" stroke-opacity="0.7" cx="15" cy="15" r="11.5"/>
</g>
<g transform="translate(0 210)"><!--obstacle-->
<circle fill="#555" cx="15" cy="15" r="12"/>
</g>
<g transform="translate(0 240)"><!--back to menu-->
<path transform="translate(3 3)" fill="#fff" d="M18.3 5.71c-.39-.39-1.02-.39-1.41 0L12 10.59 7.11 5.7c-.39-.39-1.02-.39-1.41 0-.39.39-.39 1.02 0 1.41L10.59 12 5.7 16.89c-.39.39-.39 1.02 0 1.41.39.39 1.02.39 1.41 0L12 13.41l4.89 4.89c.39.39 1.02.39 1.41 0 .39-.39.39-1.02 0-1.41L13.41 12l4.89-4.89c.38-.38.38-1.02 0-1.4z"/>
</g>
<g transform="translate(0 270)"><!--speed up--><g transform="translate(0 3)" fill="#fff"><path d="M9.31 6.71c-.39.39-.39 1.02 0 1.41L13.19 12l-3.88 3.88c-.39.39-.39 1.02 0 1.41.39.39 1.02.39 1.41 0l4.59-4.59c.39-.39.39-1.02 0-1.41L10.72 6.7c-.38-.38-1.02-.38-1.41.01z"/><path transform="translate(5)" d="M9.31 6.71c-.39.39-.39 1.02 0 1.41L13.19 12l-3.88 3.88c-.39.39-.39 1.02 0 1.41.39.39 1.02.39 1.41 0l4.59-4.59c.39-.39.39-1.02 0-1.41L10.72 6.7c-.38-.38-1.02-.38-1.41.01z"/></g>
</g>
<g transform="translate(0 300)"><!--mute-->
<path transform="translate(3 3)" fill="#fff" d="M12 5v8.55c-.94-.54-2.1-.75-3.33-.32-1.34.48-2.37 1.67-2.61 3.07-.46 2.74 1.86 5.08 4.59 4.65 1.96-.31 3.35-2.11 3.35-4.1V7h2c1.1 0 2-.9 2-2s-.9-2-2-2h-2c-1.1 0-2 .9-2 2z"/>
</g>
<g transform="translate(0 330)"><!--unmute-->
<path transform="translate(3 3)" fill="#fff" d="M14 9.61V7h2c1.1 0 2-.9 2-2s-.9-2-2-2h-3c-.55 0-1 .45-1 1v3.61l2 2zM5.12 3.56c-.39-.39-1.02-.39-1.41 0-.39.39-.39 1.02 0 1.41l8.29 8.3v.28c-.94-.54-2.1-.75-3.33-.32-1.34.48-2.37 1.67-2.61 3.07-.46 2.74 1.86 5.08 4.59 4.65 1.96-.31 3.35-2.11 3.35-4.1v-1.58l5.02 5.02c.39.39 1.02.39 1.41 0 .39-.39.39-1.02 0-1.41L5.12 3.56z"/>
</g>
</g>
</svg>