<svg xmlns="http://www.w3.org/2000/svg" width="60" height="720">
<!--Most icons derived from Google's Material Design Icons-->
<!--TODO:
* minifiy
* gradients?
-->
<g transform="scale(2)"><!--this shouldn't be neccessary, but some browsers have issues with scaling up when drawing to canvas, so just scale here to final size-->
<g><!--new ball-->
<circle fill="#0f0" fill-opacity="0.2" stroke="#0f0" stroke-opacity="0.7" cx="15" cy="15" r="11.5"/><path transform="translate(3 3)" fill="#0f0" d="M18 13h-5v5c0 .55-.45 1-1 1s-1-.45-1-1v-5H6c-.55 0-1-.45-1-1s.45-1 1-1h5V6c0-.55.45-1 1-1s1 .45 1 1v5h5c.55 0 1 .45 1 1s-.45 1-1 1z"/>
</g>
<g transform="translate(0 30)"><!--star-->
<circle fill="#ff0" fill-opacity="0.2" stroke="#ff0" stroke-opacity="0.7" cx="15" cy="15" r="11.5"/><path transform="translate(3 3)" fill="#ff0" d="M12 17.27l5.17 3.12c.38.23.85-.11.75-.54l-1.37-5.88 4.56-3.95c.33-.29.16-.84-.29-.88l-6.01-.51-2.35-5.54c-.17-.41-.75-.41-.92 0L9.19 8.63l-6.01.51c-.44.04-.62.59-.28.88l4.56 3.95-1.37 5.88c-.1.43.37.77.75.54L12 17.27z"/>
</g>
<g transform="translate(0 60)"><!--back-->
<circle fill="#f00" fill-opacity="0.2" stroke="#f00" stroke-opacity="0.7" cx="15" cy="15" r="11.5"/><path transform="translate(3 3)" fill="#f00" d="M20 11H6.83l2.88-2.88c.39-.39.39-1.02 0-1.41-.39-.39-1.02-.39-1.41 0L3.71 11.3c-.39.39-.39 1.02 0 1.41L8.3 17.3c.39.39 1.02.39 1.41 0 .39-.39.39-1.02 0-1.41L6.83 13H20c.55 0 1-.45 1-1s-.45-1-1-1z"/>
</g>
<g transform="translate(0 90)"><!--destroy ball-->
<circle fill="#ff0" fill-opacity="0.2" stroke="#ff0" stroke-opacity="0.7" cx="15" cy="15" r="11.5"/><path transform="translate(4 4)" fill="#ff0" d="M7 3v9c0 .55.45 1 1 1h2v7.15c0 .51.67.69.93.25l5.19-8.9c.39-.67-.09-1.5-.86-1.5H13l2.49-6.65c.25-.65-.23-1.35-.93-1.35H8c-.55 0-1 .45-1 1z"/>
</g>
<g transform="translate(0 120)"><!--random direction-->
<circle fill="#eef" fill-opacity="0.2" stroke="#eef" stroke-opacity="0.7" cx="15" cy="15" r="11.5"/><path transform="translate(5 4) scale(0.8)" fill="#eef" d="M19.35 10.04C18.67 6.59 15.64 4 12 4 9.11 4 6.6 5.64 5.35 8.04 2.34 8.36 0 10.91 0 14c0 3.31 2.69 6 6 6h13c2.76 0 5-2.24 5-5 0-2.64-2.05-4.78-4.65-4.96z"/>
</g>
<g transform="translate(0 150)"><!--toggle walls-->
<circle fill="#00f" fill-opacity="0.2" stroke="#00f" stroke-opacity="0.7" cx="15" cy="15" r="11.5"/><path transform="translate(3 3)" fill="#00f" d="M20 11H6.83l2.88-2.88c.39-.39.39-1.02 0-1.41-.39-.39-1.02-.39-1.41 0L3.71 11.3c-.39.39-.39 1.02 0 1.41L8.3 17.3c.39.39 1.02.39 1.41 0 .39-.39.39-1.02 0-1.41L6.83 13H20c.55 0 1-.45 1-1s-.45-1-1-1z"/><path transform="translate(8.5 3)" fill="#00f" d="M9.31 6.71c-.39.39-.39 1.02 0 1.41L13.19 12l-3.88 3.88c-.39.39-.39 1.02 0 1.41.39.39 1.02.39 1.41 0l4.59-4.59c.39-.39.39-1.02 0-1.41L10.72 6.7c-.38-.38-1.02-.38-1.41.01z"/>
</g>
<g transform="translate(0 180)"><!--bomb-->
<circle fill="#fff" fill-opacity="0.2" stroke="#000" stroke-opacity="0.7" cx="15" cy="15" r="11.5"/><path transform="translate(5 5) scale(0.2)" d="M66.03,7.683c1.262-0.539,2.879-0.885,4.617-0.812c0.759,4.807-1.603,8.536-4.659,10.089  c-1.752,0.891-3.946,1.383-6.241,0.94c-2.073-0.4-3.62-1.285-4.918-2.607c-1.325-1.353-2.034-2.848-2.522-5.002  C51.867,8.348,50.5,6.976,48.46,6.614c-2.38-0.422-4.1,0.847-4.917,2.437c-0.939,1.828-0.262,3.975,0.128,6.2  c1.409-0.116,3.024-0.396,4.617-0.471c0.916,4.884,1.71,9.89,2.607,14.792c10.156,0.618,17.22,4.184,22.744,9.49  c5.384,5.173,9.56,12.2,10.432,21.76c0.967,10.606-2.938,18.79-7.481,24.453c-4.673,5.823-11.247,10.455-20.094,12.1  c-4.912,0.913-10.049,0.747-14.45-0.301c-4.317-1.026-8.073-2.798-11.201-4.915c-6.418-4.347-11.185-10.449-13.637-18.555  c-1.281-4.234-1.797-9.507-1.154-14.279c0.624-4.633,2.096-8.712,3.976-12.098c3.837-6.914,9.552-11.927,17.058-15.134  c-0.798-5.016-1.806-9.821-2.564-14.877c1.49-0.405,2.992-0.798,4.574-1.112c-0.288-1.806-0.763-3.39-0.727-5.173  c0.034-1.707,0.571-3.317,1.325-4.574c1.451-2.418,4.159-4.276,7.481-4.489c2.74-0.175,5.012,0.893,6.583,2.223  C55.424,5.5,56.4,7.45,56.925,9.735c0.53,2.313,2.5,3.856,4.873,3.676C64.427,13.212,66.671,10.963,66.03,7.683z"/><!--https://thenounproject.com/term/bomb/3967-->
</g>
<g transform="translate(0 210)"><!--obstacle-->
<circle fill="#555" cx="15" cy="15" r="12"/>
</g>
<g transform="translate(0 240)"><!--back to menu-->
<path transform="translate(3 3)" fill="#fff" d="M18.3 5.71c-.39-.39-1.02-.39-1.41 0L12 10.59 7.11 5.7c-.39-.39-1.02-.39-1.41 0-.39.39-.39 1.02 0 1.41L10.59 12 5.7 16.89c-.39.39-.39 1.02 0 1.41.39.39 1.02.39 1.41 0L12 13.41l4.89 4.89c.39.39 1.02.39 1.41 0 .39-.39.39-1.02 0-1.41L13.41 12l4.89-4.89c.38-.38.38-1.02 0-1.4z"/>
</g>
<g transform="translate(0 270)"><!--speed up--><g transform="translate(0 3)" fill="#fff"><path d="M9.31 6.71c-.39.39-.39 1.02 0 1.41L13.19 12l-3.88 3.88c-.39.39-.39 1.02 0 1.41.39.39 1.02.39 1.41 0l4.59-4.59c.39-.39.39-1.02 0-1.41L10.72 6.7c-.38-.38-1.02-.38-1.41.01z"/><path transform="translate(5)" d="M9.31 6.71c-.39.39-.39 1.02 0 1.41L13.19 12l-3.88 3.88c-.39.39-.39 1.02 0 1.41.39.39 1.02.39 1.41 0l4.59-4.59c.39-.39.39-1.02 0-1.41L10.72 6.7c-.38-.38-1.02-.38-1.41.01z"/></g>
</g>
<g transform="translate(0 300)"><!--mute-->
<path transform="translate(3 3)" fill="#fff" d="M12 5v8.55c-.94-.54-2.1-.75-3.33-.32-1.34.48-2.37 1.67-2.61 3.07-.46 2.74 1.86 5.08 4.59 4.65 1.96-.31 3.35-2.11 3.35-4.1V7h2c1.1 0 2-.9 2-2s-.9-2-2-2h-2c-1.1 0-2 .9-2 2z"/>
</g>
<g transform="translate(0 330)"><!--unmute-->
<path transform="translate(3 3)" fill="#fff" d="M14 9.61V7h2c1.1 0 2-.9 2-2s-.9-2-2-2h-3c-.55 0-1 .45-1 1v3.61l2 2zM5.12 3.56c-.39-.39-1.02-.39-1.41 0-.39.39-.39 1.02 0 1.41l8.29 8.3v.28c-.94-.54-2.1-.75-3.33-.32-1.34.48-2.37 1.67-2.61 3.07-.46 2.74 1.86 5.08 4.59 4.65 1.96-.31 3.35-2.11 3.35-4.1v-1.58l5.02 5.02c.39.39 1.02.39 1.41 0 .39-.39.39-1.02 0-1.41L5.12 3.56z"/>
</g>
</g>
</svg>