<svg xmlns="http://www.w3.org/2000/svg" width="60" height="720"><defs><radialGradient id="green"><stop offset="0%" stop-color="#0f0" stop-opacity="0.3"/><stop offset="100%" stop-color="#0f0" stop-opacity="0.1"/></radialGradient><radialGradient id="yellow"><stop offset="0%" stop-color="#ff0" stop-opacity="0.3"/><stop offset="100%" stop-color="#ff0" stop-opacity="0.1"/></radialGradient><radialGradient id="red"><stop offset="0%" stop-color="#f00" stop-opacity="0.3"/><stop offset="100%" stop-color="#f00" stop-opacity="0.1"/></radialGradient><radialGradient id="white"><stop offset="0%" stop-color="#fff" stop-opacity="0.3"/><stop offset="100%" stop-color="#fff" stop-opacity="0.1"/></radialGradient><radialGradient id="blue"><stop offset="0%" stop-color="#00f" stop-opacity="0.3"/><stop offset="100%" stop-color="#00f" stop-opacity="0.1"/></radialGradient></defs><g transform="scale(2)"><g><circle fill="url(#green)" stroke="#0f0" stroke-opacity="0.7" cx="15" cy="15" r="11.5"/><path fill="#0f0" d="M21 16h-5v5c0 .55-.45 1-1 1s-1-.45-1-1v-5H9c-.55 0-1-.45-1-1s.45-1 1-1h5V9c0-.55.45-1 1-1s1 .45 1 1v5h5c.55 0 1 .45 1 1s-.45 1-1 1z"/></g><g transform="translate(0 30)"><circle fill="url(#yellow)" stroke="#ff0" stroke-opacity="0.7" cx="15" cy="15" r="11.5"/><path fill="#ff0" d="M15 20.27l5.17 3.12c.38.23.85-.11.75-.54l-1.37-5.88 4.56-3.95c.33-.29.16-.84-.29-.88l-6.01-.51-2.35-5.54a.5.5 0 0 0-.92 0l-2.35 5.54-6.01.51a.5.5 0 0 0-.28.88l4.56 3.95-1.37 5.88c-.1.43.37.77.75.54L15 20.27z"/></g><g transform="translate(0 60)"><circle fill="url(#red)" stroke="#f00" stroke-opacity="0.7" cx="15" cy="15" r="11.5"/><path fill="#f00" d="M23 14H9.83l2.88-2.88a.996.996 0 1 0-1.41-1.41L6.71 14.3a.996.996 0 0 0 0 1.41l4.59 4.59a.996.996 0 1 0 1.41-1.41L9.83 16H23c.55 0 1-.45 1-1s-.45-1-1-1z"/></g><g transform="translate(0 90)"><circle fill="url(#yellow)" stroke="#ff0" stroke-opacity="0.7" cx="15" cy="15" r="11.5"/><path fill="#ff0" d="M11 7v9c0 .55.45 1 1 1h2v7.15c0 .51.67.69.93.25l5.19-8.9a.995.995 0 0 0-.86-1.5H17l2.49-6.65A.994.994 0 0 0 18.56 6H12c-.55 0-1 .45-1 1z"/></g><g transform="translate(0 120)"><circle fill="url(#white)" stroke="#eef" stroke-opacity="0.7" cx="15" cy="15" r="11.5"/><path fill="#eef" d="M20.48 12.03A5.99 5.99 0 0 0 14.6 7.2a6 6 0 0 0-5.32 3.23A4.8 4.8 0 0 0 5 15.2C5 17.85 7.15 20 9.8 20h10.4c2.21 0 4-1.79 4-4a3.98 3.98 0 0 0-3.72-3.97z"/></g><g transform="translate(0 150)"><circle fill="url(#blue)" stroke="#00f" stroke-opacity="0.7" cx="15" cy="15" r="11.5"/><path fill="#00f" d="M23 14H9.83l2.88-2.88a.996.996 0 1 0-1.41-1.41L6.71 14.3a.996.996 0 0 0 0 1.41l4.59 4.59a.996.996 0 1 0 1.41-1.41L9.83 16H23c.55 0 1-.45 1-1s-.45-1-1-1z M17.81 9.71a.996.996 0 0 0 0 1.41L21.69 15l-3.88 3.88a.996.996 0 1 0 1.41 1.41l4.59-4.59a.996.996 0 0 0 0-1.41L19.22 9.7c-.38-.38-1.02-.38-1.41.01z"/></g><g transform="translate(0 180)"><circle fill="url(#white)" stroke="#000" stroke-opacity="0.7" cx="15" cy="15" r="11.5"/><path stroke="#fff" stroke-width="0.5" d="M18.21 6.54c.25-.11.58-.18.92-.16.15.96-.32 1.71-.93 2.02-.35.18-.79.28-1.25.19a1.8 1.8 0 0 1-.98-.52c-.27-.27-.41-.57-.51-1a.92.92 0 0 0-.77-.74.9.9 0 0 0-.98.49c-.19.37-.05.8.03 1.24.28-.02.61-.08.92-.09.18.98.34 1.98.52 2.96 2.03.12 3.44.84 4.55 1.9 1.08 1.04 1.91 2.44 2.09 4.35.19 2.12-.59 3.76-1.5 4.89-.94 1.17-2.25 2.09-4.02 2.42-.98.18-2.01.15-2.89-.06a6.8 6.8 0 0 1-2.24-.98 6.72 6.72 0 0 1-2.73-3.71 7.05 7.05 0 0 1-.23-2.86c.13-.93.42-1.74.8-2.42.77-1.38 1.91-2.39 3.41-3.03-.16-1-.36-1.97-.51-2.98.3-.08.6-.16.92-.22-.06-.36-.15-.68-.15-1.04a1.88 1.88 0 0 1 .27-.92c.29-.48.83-.86 1.5-.9a1.85 1.85 0 0 1 1.32.44c.33.28.53.67.63 1.13.11.46.5.77.98.74.53-.04.97-.49.85-1.15z"/></g><g transform="translate(0 210)"><circle fill="#555" cx="15" cy="15" r="12"/></g><g transform="translate(0 240)"><path fill="#fff" d="M21.3 8.71a.996.996 0 0 0-1.41 0L15 13.59 10.11 8.7a.996.996 0 1 0-1.41 1.41L13.59 15 8.7 19.89a.996.996 0 1 0 1.41 1.41L15 16.41l4.89 4.89a.996.996 0 1 0 1.41-1.41L16.41 15l4.89-4.89c.38-.38.38-1.02 0-1.4z"/></g><g transform="translate(0 270)"><path fill="#fff" d="M9.31 9.71a.996.996 0 0 0 0 1.41L13.19 15l-3.88 3.88a.996.996 0 1 0 1.41 1.41l4.59-4.59a.996.996 0 0 0 0-1.41L10.72 9.7c-.38-.38-1.02-.38-1.41.01z M14.31 9.71a.996.996 0 0 0 0 1.41L18.19 15l-3.88 3.88a.996.996 0 1 0 1.41 1.41l4.59-4.59a.996.996 0 0 0 0-1.41L15.72 9.7c-.38-.38-1.02-.38-1.41.01z"/></g><g transform="translate(0 300)"><path fill="#fff" d="M15 8v8.55c-.94-.54-2.1-.75-3.33-.32-1.34.48-2.37 1.67-2.61 3.07a4.007 4.007 0 0 0 4.59 4.65c1.96-.31 3.35-2.11 3.35-4.1V10h2c1.1 0 2-.9 2-2s-.9-2-2-2h-2c-1.1 0-2 .9-2 2z"/></g><g transform="translate(0 330)"><path fill="#fff" d="M17 12.61V10h2c1.1 0 2-.9 2-2s-.9-2-2-2h-2c-1.1 0-2 .9-2 2v3.61l2 2zM8.12 6.56a.996.996 0 1 0-1.41 1.41l8.29 8.3v.28c-.94-.54-2.1-.75-3.33-.32-1.34.48-2.37 1.67-2.61 3.07a4.007 4.007 0 0 0 4.59 4.65c1.96-.31 3.35-2.11 3.35-4.1v-1.58l5.02 5.02a.996.996 0 1 0 1.41-1.41L8.12 6.56z"/></g></g></svg>